# xmcd CD database file
#
# Track frame offsets:
#	182
#	12330
#	27027
#	43760
#	57810
#	74812
#	91605
#	112435
#	130592
#	148765
#	169225
#	180772
#	198332
#	216072
#	232000
#	252405
#	266177
#	283645
#	302940
#	316715
#
# Disc length: 4462 seconds
#
# Revision: 0
# Processed by: cddbd v1.4PL0 Copyright (c) Steve Scherf et al.
# Submitted via: CDex 1.50beta9
#
DISCID=27116c14
DTITLE=Various Artist  - Thoughts Of Ireland
DYEAR=1992
DGENRE=Country
TTITLE0=Summerting In Ireland - Daniel O'Donnell
TTITLE1=Isle Of Inishfree - Foster and Allen
TTITLE2=Beautiful Meath - Mary Duff
TTITLE3=Golden Drams - Dominic Kirwan
TTITLE4=Shanagolden - Margo
TTITLE5=Home To Donegal - Mick Flaven
TTITLE6=Red Is The Rose - Philomena Begley
TTITLE7=Spancil Hill - Mary Duff
TTITLE8=If We Only Had Old Ireland Over Here - Fank McCaffrey
TTITLE9=Carrickfergus - Brendan Quinn
TTITLE10=The Girl From Wexford Town - Mick Flavin
TTITLE11=Bunch Of Thyme - Foster and Allen
TTITLE12=Galway Bay - Philomena Begley
TTITLE13=Give An Irish Girl To Me - Dealan Nerney
TTITLE14=Noreen Bawn - Dominic Kirwan
TTITLE15=Moonlight In Mayo - Frank Mc Caffrey
TTITLE16=Lady From Glenfarne - Brendan Quinn
TTITLE17=Rose Of allendale - Louise Morrissey
TTITLE18=Forty Miles To Doegal - Margo
TTITLE19=Sing An Old Irish Song Daniel O'donnell
EXTD=YEAR: 1992
EXTT0=
EXTT1=
EXTT2=
EXTT3=
EXTT4=
EXTT5=
EXTT6=
EXTT7=
EXTT8=
EXTT9=
EXTT10=
EXTT11=
EXTT12=
EXTT13=
EXTT14=
EXTT15=
EXTT16=
EXTT17=
EXTT18=
EXTT19=
PLAYORDER=
